<svg width="32" height="31" viewBox="0 0 32 31" fill="none" xmlns="http://www.w3.org/2000/svg">
<path d="M15.5777 7.55199C11.1792 7.55199 7.63144 11.1006 7.63144 15.5C7.63144 19.8994 11.1792 23.448 15.5777 23.448C19.9761 23.448 23.5239 19.8994 23.5239 15.5C23.5239 11.1006 19.9761 7.55199 15.5777 7.55199ZM15.5777 20.6672C12.7353 20.6672 10.4116 18.3499 10.4116 15.5C10.4116 12.6501 12.7284 10.3328 15.5777 10.3328C18.427 10.3328 20.7438 12.6501 20.7438 15.5C20.7438 18.3499 18.4201 20.6672 15.5777 20.6672ZM25.7024 7.22688C25.7024 8.25756 24.8725 9.08072 23.849 9.08072C22.8185 9.08072 21.9955 8.25064 21.9955 7.22688C21.9955 6.20311 22.8254 5.37303 23.849 5.37303C24.8725 5.37303 25.7024 6.20311 25.7024 7.22688ZM30.9653 9.10839C30.8477 6.62507 30.2806 4.42536 28.4618 2.61302C26.6498 0.80068 24.4506 0.23346 21.9679 0.108948C19.409 -0.036316 11.7394 -0.036316 9.18058 0.108948C6.70473 0.226542 4.50551 0.793763 2.68666 2.6061C0.867805 4.41844 0.307626 6.61815 0.183142 9.10147C0.0379109 11.6609 0.0379109 19.3322 0.183142 21.8916C0.300711 24.3749 0.867805 26.5746 2.68666 28.387C4.50551 30.1993 6.69781 30.7665 9.18058 30.8911C11.7394 31.0363 19.409 31.0363 21.9679 30.8911C24.4506 30.7735 26.6498 30.2062 28.4618 28.387C30.2737 26.5746 30.8408 24.3749 30.9653 21.8916C31.1105 19.3322 31.1105 11.6678 30.9653 9.10839ZM27.6596 24.6378C27.1201 25.9936 26.0758 27.0381 24.7134 27.5846C22.6733 28.3939 17.8322 28.2071 15.5777 28.2071C13.3231 28.2071 8.47517 28.387 6.44193 27.5846C5.08643 27.045 4.04215 26.0005 3.4958 24.6378C2.68666 22.5972 2.87338 17.755 2.87338 15.5C2.87338 13.245 2.69357 8.39591 3.4958 6.36221C4.03523 5.00642 5.07952 3.9619 6.44193 3.41543C8.48208 2.6061 13.3231 2.79287 15.5777 2.79287C17.8322 2.79287 22.6802 2.61302 24.7134 3.41543C26.0689 3.95498 27.1132 4.9995 27.6596 6.36221C28.4687 8.40282 28.282 13.245 28.282 15.5C28.282 17.755 28.4687 22.6041 27.6596 24.6378Z" fill="#170073"/>
</svg>
