<svg width="23" height="23" viewBox="0 0 23 23" fill="none" xmlns="http://www.w3.org/2000/svg">
<path d="M20.6026 5.73297C20.6172 5.97156 20.6172 6.2102 20.6172 6.44878C20.6172 13.726 15.8818 22.1111 7.22695 22.1111C4.56054 22.1111 2.08358 21.2078 0 19.64C0.378846 19.6911 0.74307 19.7081 1.13649 19.7081C3.33659 19.7081 5.36192 18.8389 6.97924 17.3562C4.91024 17.3051 3.17635 15.7201 2.57895 13.5386C2.87038 13.5897 3.16177 13.6238 3.46778 13.6238C3.89031 13.6238 4.31288 13.5556 4.70626 13.4364C2.54984 12.925 0.93247 10.7095 0.93247 8.03376V7.96561C1.55898 8.37464 2.28756 8.63028 3.05974 8.66433C1.7921 7.67582 0.961623 5.9886 0.961623 4.07979C0.961623 3.05724 1.19471 2.11989 1.6027 1.30183C3.91942 4.64222 7.40177 6.82366 11.3066 7.0623C11.2338 6.65327 11.19 6.22725 11.19 5.80117C11.19 2.76751 13.2882 0.296326 15.8963 0.296326C17.2514 0.296326 18.4753 0.960994 19.3349 2.03469C20.3985 1.79611 21.4185 1.33593 22.3219 0.705356C21.9721 1.9836 21.2291 3.0573 20.2529 3.73896C21.2 3.61972 22.1179 3.31288 22.963 2.88685C22.322 3.97755 21.5206 4.94895 20.6026 5.73297Z" fill="#170073"/>
</svg>
